<mxfile><diagram id="6-Az4t-CK-rrU8GcaIO7" name="Page-1"><mxGraphModel dx="1760" dy="1528" grid="0" gridSize="10" guides="1" tooltips="1" connect="1" arrows="1" fold="1" page="1" pageScale="1" pageWidth="850" pageHeight="1100" background="#ffffff" math="0" shadow="0"><root><mxCell id="0"/><mxCell id="1" parent="0"/><mxCell id="42" value="" style="group;container=1;" vertex="1" connectable="0" parent="1"><mxGeometry x="8" y="1" width="819" height="1051" as="geometry"/></mxCell><mxCell id="2" value="&lt;font style=&quot;font-size: 15px;&quot; color=&quot;#000000&quot;&gt;Student&lt;/font&gt;" style="swimlane;html=1;fontStyle=0;childLayout=stackLayout;horizontal=1;startSize=26;fillColor=none;horizontalStack=0;resizeParent=1;resizeLast=0;collapsible=1;marginBottom=0;swimlaneFillColor=#ffffff;rounded=0;shadow=0;comic=0;labelBackgroundColor=none;strokeWidth=1;fontFamily=Verdana;fontSize=10;align=center;strokeColor=#000000;" parent="42" vertex="1"><mxGeometry x="302.2208674698796" y="99.52933995237817" width="188.88804216867473" height="83.06536050301459" as="geometry"><mxRectangle x="345" y="87" width="90" height="30" as="alternateBounds"/></mxGeometry></mxCell><mxCell id="4" value="&lt;font color=&quot;#000000&quot; style=&quot;font-size: 14px;&quot;&gt;+eat()&lt;/font&gt;" style="text;html=1;strokeColor=none;fillColor=none;align=left;verticalAlign=top;spacingLeft=4;spacingRight=4;whiteSpace=wrap;overflow=hidden;rotatable=0;points=[[0,0.5],[1,0.5]];portConstraint=eastwest;fontSize=14;" parent="2" vertex="1"><mxGeometry y="26" width="188.88804216867473" height="23.99665970087088" as="geometry"/></mxCell><mxCell id="5" value="+move()" style="text;html=1;strokeColor=none;fillColor=none;align=left;verticalAlign=top;spacingLeft=4;spacingRight=4;whiteSpace=wrap;overflow=hidden;rotatable=0;points=[[0,0.5],[1,0.5]];portConstraint=eastwest;fontColor=#000000;fontSize=15;" parent="2" vertex="1"><mxGeometry y="49.99665970087088" width="188.88804216867473" height="25.84255660093787" as="geometry"/></mxCell><mxCell id="6" value="&lt;font style=&quot;font-size: 15px;&quot; color=&quot;#000000&quot;&gt;EatStrategy&lt;/font&gt;" style="swimlane;html=1;fontStyle=0;childLayout=stackLayout;horizontal=1;startSize=26;fillColor=#f0a30a;horizontalStack=0;resizeParent=1;resizeLast=0;collapsible=1;marginBottom=0;swimlaneFillColor=#ffffff;rounded=0;shadow=0;comic=0;labelBackgroundColor=none;strokeWidth=1;fontFamily=Verdana;fontSize=10;align=center;strokeColor=#BD7000;fontColor=#000000;" parent="42" vertex="1"><mxGeometry x="13.918066265060242" y="371.7991327122593" width="188.88804216867473" height="55.37690700200972" as="geometry"><mxRectangle x="345" y="87" width="90" height="30" as="alternateBounds"/></mxGeometry></mxCell><mxCell id="8" value="&lt;font color=&quot;#000000&quot; style=&quot;font-size: 15px;&quot;&gt;+eat()&lt;/font&gt;" style="text;html=1;strokeColor=none;fillColor=none;align=left;verticalAlign=top;spacingLeft=4;spacingRight=4;whiteSpace=wrap;overflow=hidden;rotatable=0;points=[[0,0.5],[1,0.5]];portConstraint=eastwest;fontStyle=2;fontSize=15;" parent="6" vertex="1"><mxGeometry y="26" width="188.88804216867473" height="23.99665970087088" as="geometry"/></mxCell><mxCell id="10" value="&lt;font style=&quot;font-size: 15px;&quot; color=&quot;#000000&quot;&gt;MoveStrategy&lt;/font&gt;" style="swimlane;html=1;fontStyle=0;childLayout=stackLayout;horizontal=1;startSize=26;fillColor=#f0a30a;horizontalStack=0;resizeParent=1;resizeLast=0;collapsible=1;marginBottom=0;swimlaneFillColor=#ffffff;rounded=0;shadow=0;comic=0;labelBackgroundColor=none;strokeWidth=1;fontFamily=Verdana;fontSize=10;align=center;strokeColor=#BD7000;fontColor=#000000;" parent="42" vertex="1"><mxGeometry x="590.5236686746989" y="371.7991327122593" width="188.88804216867473" height="55.37690700200972" as="geometry"><mxRectangle x="345" y="87" width="90" height="30" as="alternateBounds"/></mxGeometry></mxCell><mxCell id="11" value="&lt;font style=&quot;font-size: 15px;&quot; color=&quot;#000000&quot;&gt;+move()&lt;/font&gt;" style="text;html=1;strokeColor=none;fillColor=none;align=left;verticalAlign=top;spacingLeft=4;spacingRight=4;whiteSpace=wrap;overflow=hidden;rotatable=0;points=[[0,0.5],[1,0.5]];portConstraint=eastwest;fontStyle=2" parent="10" vertex="1"><mxGeometry y="26" width="188.88804216867473" height="23.99665970087088" as="geometry"/></mxCell><mxCell id="26" style="edgeStyle=none;html=1;exitX=0.5;exitY=0;exitDx=0;exitDy=0;entryX=0.5;entryY=1;entryDx=0;entryDy=0;fontSize=15;fontColor=#000000;strokeColor=#000000;endArrow=block;endFill=0;strokeWidth=1;" parent="42" source="12" target="2" edge="1"><mxGeometry relative="1" as="geometry"/></mxCell><mxCell id="12" value="&lt;font color=&quot;#000000&quot;&gt;&lt;span style=&quot;font-size: 15px;&quot;&gt;TechStudent&lt;/span&gt;&lt;/font&gt;" style="swimlane;html=1;fontStyle=0;childLayout=stackLayout;horizontal=1;startSize=26;fillColor=none;horizontalStack=0;resizeParent=1;resizeLast=0;collapsible=1;marginBottom=0;swimlaneFillColor=#ffffff;rounded=0;shadow=0;comic=0;labelBackgroundColor=none;strokeWidth=1;fontFamily=Verdana;fontSize=10;align=center;strokeColor=#000000;" parent="42" vertex="1"><mxGeometry x="222.68906024096387" y="307.1927412099146" width="188.88804216867473" height="83.06536050301459" as="geometry"><mxRectangle x="345" y="87" width="90" height="30" as="alternateBounds"/></mxGeometry></mxCell><mxCell id="13" value="&lt;font color=&quot;#000000&quot; style=&quot;font-size: 15px;&quot;&gt;+eat()&lt;/font&gt;" style="text;html=1;strokeColor=none;fillColor=none;align=left;verticalAlign=top;spacingLeft=4;spacingRight=4;whiteSpace=wrap;overflow=hidden;rotatable=0;points=[[0,0.5],[1,0.5]];portConstraint=eastwest;fontSize=15;" parent="12" vertex="1"><mxGeometry y="26" width="188.88804216867473" height="23.99665970087088" as="geometry"/></mxCell><mxCell id="14" value="+move()" style="text;html=1;strokeColor=none;fillColor=none;align=left;verticalAlign=top;spacingLeft=4;spacingRight=4;whiteSpace=wrap;overflow=hidden;rotatable=0;points=[[0,0.5],[1,0.5]];portConstraint=eastwest;fontColor=#000000;fontSize=15;" parent="12" vertex="1"><mxGeometry y="49.99665970087088" width="188.88804216867473" height="25.84255660093787" as="geometry"/></mxCell><mxCell id="28" style="edgeStyle=none;html=1;exitX=0.5;exitY=0;exitDx=0;exitDy=0;entryX=0.75;entryY=1;entryDx=0;entryDy=0;strokeColor=#000000;strokeWidth=1;fontSize=15;fontColor=#000000;endArrow=block;endFill=0;" parent="42" source="15" target="2" edge="1"><mxGeometry relative="1" as="geometry"/></mxCell><mxCell id="15" value="&lt;font style=&quot;font-size: 15px;&quot; color=&quot;#000000&quot;&gt;NoTechStudent&lt;/font&gt;" style="swimlane;html=1;fontStyle=0;childLayout=stackLayout;horizontal=1;startSize=26;fillColor=none;horizontalStack=0;resizeParent=1;resizeLast=0;collapsible=1;marginBottom=0;swimlaneFillColor=#ffffff;rounded=0;shadow=0;comic=0;labelBackgroundColor=none;strokeWidth=1;fontFamily=Verdana;fontSize=15;align=center;strokeColor=#000000;" parent="42" vertex="1"><mxGeometry x="389.70585542168675" y="404.1023284634316" width="188.88804216867473" height="83.06536050301459" as="geometry"><mxRectangle x="345" y="87" width="90" height="30" as="alternateBounds"/></mxGeometry></mxCell><mxCell id="16" value="&lt;font color=&quot;#000000&quot; style=&quot;font-size: 15px;&quot;&gt;+eat()&lt;/font&gt;" style="text;html=1;strokeColor=none;fillColor=none;align=left;verticalAlign=top;spacingLeft=4;spacingRight=4;whiteSpace=wrap;overflow=hidden;rotatable=0;points=[[0,0.5],[1,0.5]];portConstraint=eastwest;fontSize=15;" parent="15" vertex="1"><mxGeometry y="26" width="188.88804216867473" height="23.99665970087088" as="geometry"/></mxCell><mxCell id="17" value="+move()" style="text;html=1;strokeColor=none;fillColor=none;align=left;verticalAlign=top;spacingLeft=4;spacingRight=4;whiteSpace=wrap;overflow=hidden;rotatable=0;points=[[0,0.5],[1,0.5]];portConstraint=eastwest;fontColor=#000000;fontSize=15;" parent="15" vertex="1"><mxGeometry y="49.99665970087088" width="188.88804216867473" height="25.84255660093787" as="geometry"/></mxCell><mxCell id="29" style="edgeStyle=none;html=1;exitX=0.5;exitY=0;exitDx=0;exitDy=0;entryX=0.48;entryY=1.265;entryDx=0;entryDy=0;entryPerimeter=0;strokeColor=#000000;strokeWidth=1;fontSize=15;fontColor=#000000;endArrow=block;endFill=0;" parent="42" source="18" target="8" edge="1"><mxGeometry relative="1" as="geometry"/></mxCell><mxCell id="18" value="&lt;font style=&quot;font-size: 15px;&quot; color=&quot;#000000&quot;&gt;UnhealthyFoodStrategy&lt;/font&gt;" style="swimlane;html=1;fontStyle=0;childLayout=stackLayout;horizontal=1;startSize=26;fillColor=none;horizontalStack=0;resizeParent=1;resizeLast=0;collapsible=1;marginBottom=0;swimlaneFillColor=#ffffff;rounded=0;shadow=0;comic=0;labelBackgroundColor=none;strokeWidth=1;fontFamily=Verdana;fontSize=10;align=center;strokeColor=#000000;" parent="42" vertex="1"><mxGeometry y="634.8394409718055" width="216.7241746987952" height="55.37690700200972" as="geometry"><mxRectangle x="345" y="87" width="90" height="30" as="alternateBounds"/></mxGeometry></mxCell><mxCell id="19" value="&lt;font color=&quot;#000000&quot; style=&quot;font-size: 15px;&quot;&gt;+eat()&lt;/font&gt;" style="text;html=1;strokeColor=none;fillColor=none;align=left;verticalAlign=top;spacingLeft=4;spacingRight=4;whiteSpace=wrap;overflow=hidden;rotatable=0;points=[[0,0.5],[1,0.5]];portConstraint=eastwest;fontSize=15;" parent="18" vertex="1"><mxGeometry y="26" width="216.7241746987952" height="23.99665970087088" as="geometry"/></mxCell><mxCell id="35" style="edgeStyle=none;html=1;exitX=0.5;exitY=1;exitDx=0;exitDy=0;entryX=0.75;entryY=0;entryDx=0;entryDy=0;strokeColor=#000000;strokeWidth=1;fontSize=15;fontColor=#000000;endArrow=blockThin;endFill=1;dashed=1;" parent="42" source="12" target="18" edge="1"><mxGeometry relative="1" as="geometry"/></mxCell><mxCell id="30" style="edgeStyle=none;html=1;exitX=0.5;exitY=0;exitDx=0;exitDy=0;entryX=0.75;entryY=1;entryDx=0;entryDy=0;strokeColor=#000000;strokeWidth=1;fontSize=15;fontColor=#000000;endArrow=block;endFill=0;" parent="42" source="20" target="6" edge="1"><mxGeometry relative="1" as="geometry"/></mxCell><mxCell id="20" value="&lt;font style=&quot;font-size: 15px;&quot; color=&quot;#000000&quot;&gt;HealthyFoodStrategy&lt;/font&gt;" style="swimlane;html=1;fontStyle=0;childLayout=stackLayout;horizontal=1;startSize=26;fillColor=none;horizontalStack=0;resizeParent=1;resizeLast=0;collapsible=1;marginBottom=0;swimlaneFillColor=#ffffff;rounded=0;shadow=0;comic=0;labelBackgroundColor=none;strokeWidth=1;fontFamily=Verdana;fontSize=10;align=center;strokeColor=#000000;" parent="42" vertex="1"><mxGeometry x="188.88804216867473" y="745.5932549758248" width="224.67735542168677" height="55.37690700200972" as="geometry"><mxRectangle x="345" y="87" width="90" height="30" as="alternateBounds"/></mxGeometry></mxCell><mxCell id="21" value="&lt;font color=&quot;#000000&quot; style=&quot;font-size: 15px;&quot;&gt;+eat()&lt;/font&gt;" style="text;html=1;strokeColor=none;fillColor=none;align=left;verticalAlign=top;spacingLeft=4;spacingRight=4;whiteSpace=wrap;overflow=hidden;rotatable=0;points=[[0,0.5],[1,0.5]];portConstraint=eastwest;fontSize=15;" parent="20" vertex="1"><mxGeometry y="26" width="224.67735542168677" height="23.99665970087088" as="geometry"/></mxCell><mxCell id="37" style="edgeStyle=none;html=1;exitX=0.5;exitY=1;exitDx=0;exitDy=0;entryX=0.594;entryY=0.012;entryDx=0;entryDy=0;entryPerimeter=0;dashed=1;strokeColor=#000000;strokeWidth=1;fontSize=15;fontColor=#000000;endArrow=blockThin;endFill=1;" parent="42" source="15" target="20" edge="1"><mxGeometry relative="1" as="geometry"/></mxCell><mxCell id="31" style="edgeStyle=none;html=1;exitX=0.5;exitY=0;exitDx=0;exitDy=0;entryX=0.25;entryY=1;entryDx=0;entryDy=0;strokeColor=#000000;strokeWidth=1;fontSize=15;fontColor=#000000;endArrow=block;endFill=0;" parent="42" source="22" target="10" edge="1"><mxGeometry relative="1" as="geometry"/></mxCell><mxCell id="22" value="&lt;font style=&quot;font-size: 15px;&quot; color=&quot;#000000&quot;&gt;CarStrategy&lt;/font&gt;" style="swimlane;html=1;fontStyle=0;childLayout=stackLayout;horizontal=1;startSize=26;fillColor=none;horizontalStack=0;resizeParent=1;resizeLast=0;collapsible=1;marginBottom=0;swimlaneFillColor=#ffffff;rounded=0;shadow=0;comic=0;labelBackgroundColor=none;strokeWidth=1;fontFamily=Verdana;fontSize=10;align=center;strokeColor=#000000;" parent="42" vertex="1"><mxGeometry x="404.6180692771085" y="634.8394409718055" width="188.88804216867473" height="55.37690700200972" as="geometry"><mxRectangle x="345" y="87" width="90" height="30" as="alternateBounds"/></mxGeometry></mxCell><mxCell id="23" value="&lt;font color=&quot;#000000&quot; style=&quot;font-size: 15px;&quot;&gt;+move()&lt;/font&gt;" style="text;html=1;strokeColor=none;fillColor=none;align=left;verticalAlign=top;spacingLeft=4;spacingRight=4;whiteSpace=wrap;overflow=hidden;rotatable=0;points=[[0,0.5],[1,0.5]];portConstraint=eastwest;fontSize=15;" parent="22" vertex="1"><mxGeometry y="26" width="188.88804216867473" height="23.99665970087088" as="geometry"/></mxCell><mxCell id="36" style="edgeStyle=none;html=1;exitX=0.75;exitY=1;exitDx=0;exitDy=0;entryX=0;entryY=0;entryDx=0;entryDy=0;dashed=1;strokeColor=#000000;strokeWidth=1;fontSize=15;fontColor=#000000;endArrow=blockThin;endFill=1;" parent="42" source="12" target="22" edge="1"><mxGeometry relative="1" as="geometry"/></mxCell><mxCell id="33" style="edgeStyle=none;html=1;exitX=0.5;exitY=0;exitDx=0;exitDy=0;entryX=0.75;entryY=1;entryDx=0;entryDy=0;strokeColor=#000000;strokeWidth=1;fontSize=15;fontColor=#000000;endArrow=block;endFill=0;" parent="42" source="24" target="10" edge="1"><mxGeometry relative="1" as="geometry"/></mxCell><mxCell id="24" value="&lt;font style=&quot;font-size: 15px;&quot; color=&quot;#000000&quot;&gt;BikeStrategy&lt;/font&gt;" style="swimlane;html=1;fontStyle=0;childLayout=stackLayout;horizontal=1;startSize=26;fillColor=none;horizontalStack=0;resizeParent=1;resizeLast=0;collapsible=1;marginBottom=0;swimlaneFillColor=#ffffff;rounded=0;shadow=0;comic=0;labelBackgroundColor=none;strokeWidth=1;fontFamily=Verdana;fontSize=10;align=center;strokeColor=#000000;" parent="42" vertex="1"><mxGeometry x="606.430030120482" y="745.5932549758248" width="188.88804216867473" height="55.37690700200972" as="geometry"><mxRectangle x="345" y="87" width="90" height="30" as="alternateBounds"/></mxGeometry></mxCell><mxCell id="25" value="&lt;font color=&quot;#000000&quot; style=&quot;font-size: 15px;&quot;&gt;+bike()&lt;/font&gt;" style="text;html=1;strokeColor=none;fillColor=none;align=left;verticalAlign=top;spacingLeft=4;spacingRight=4;whiteSpace=wrap;overflow=hidden;rotatable=0;points=[[0,0.5],[1,0.5]];portConstraint=eastwest;fontSize=15;" parent="24" vertex="1"><mxGeometry y="26" width="188.88804216867473" height="23.99665970087088" as="geometry"/></mxCell><mxCell id="38" style="edgeStyle=none;html=1;exitX=0.75;exitY=1;exitDx=0;exitDy=0;entryX=0.25;entryY=0;entryDx=0;entryDy=0;dashed=1;strokeColor=#000000;strokeWidth=1;fontSize=15;fontColor=#000000;endArrow=blockThin;endFill=1;" parent="42" source="15" target="24" edge="1"><mxGeometry relative="1" as="geometry"/></mxCell><mxCell id="41" value="Strategy" style="text;html=1;strokeColor=none;fillColor=none;align=center;verticalAlign=middle;whiteSpace=wrap;rounded=0;fontSize=20;fontColor=#000000;fontStyle=1" parent="42" vertex="1"><mxGeometry x="324.0921144578313" y="34" width="147.133843373494" height="27.68845350100486" as="geometry"/></mxCell><mxCell id="43" value="" style="shape=umlFrame;whiteSpace=wrap;html=1;rounded=0;shadow=0;comic=0;labelBackgroundColor=none;strokeWidth=1;fontFamily=Verdana;fontSize=10;align=center;" vertex="1" parent="1"><mxGeometry x="7" y="5" width="817" height="926" as="geometry"/></mxCell></root></mxGraphModel></diagram></mxfile>